<svg xmlns="http://www.w3.org/2000/svg" xmlns:xlink="http://www.w3.org/1999/xlink" width="500" zoomAndPan="magnify" viewBox="0 0 375 374.999991" height="500" preserveAspectRatio="xMidYMid meet" version="1.0"><defs><g/><clipPath id="82337ea4a2"><path d="M 75 54.34375 L 187.5 54.34375 L 187.5 166.84375 L 75 166.84375 Z M 75 54.34375 " clip-rule="nonzero"/></clipPath><clipPath id="259fe83e8b"><path d="M 131.25 166.84375 L 75 110.59375 L 103.125 110.59375 L 103.125 54.34375 L 159.375 54.34375 L 159.375 110.59375 L 187.5 110.59375 Z M 131.25 166.84375 " clip-rule="nonzero"/></clipPath></defs><g fill="#ffffff" fill-opacity="1"><g transform="translate(0.0000045, 268.692972)"><g><path d="M 95.515625 -65.4375 L 95.515625 -64.5625 C 95.515625 -64.5625 96.457031 -64.320312 98.34375 -63.84375 C 100.226562 -63.375 102.582031 -62.519531 105.40625 -61.28125 C 108.238281 -60.050781 111.070312 -58.285156 113.90625 -55.984375 C 116.738281 -53.679688 119.097656 -50.703125 120.984375 -47.046875 C 122.867188 -43.390625 123.8125 -38.910156 123.8125 -33.609375 C 123.8125 -27.117188 121.863281 -21.191406 117.96875 -15.828125 C 114.082031 -10.460938 107.742188 -6.1875 98.953125 -3 C 90.171875 0.175781 78.410156 1.765625 63.671875 1.765625 C 54.242188 1.765625 45.488281 1.617188 37.40625 1.328125 C 29.332031 1.035156 22.847656 0.738281 17.953125 0.4375 C 13.054688 0.144531 10.609375 0 10.609375 0 L 10.609375 -123.8125 C 10.609375 -123.8125 13.054688 -123.957031 17.953125 -124.25 C 22.847656 -124.550781 29.273438 -124.847656 37.234375 -125.140625 C 45.191406 -125.429688 53.710938 -125.578125 62.796875 -125.578125 C 76.117188 -125.578125 86.847656 -123.984375 94.984375 -120.796875 C 103.117188 -117.617188 109.070312 -113.4375 112.84375 -108.25 C 116.613281 -103.0625 118.5 -97.34375 118.5 -91.09375 C 118.5 -85.78125 117.347656 -81.441406 115.046875 -78.078125 C 112.753906 -74.722656 110.070312 -72.128906 107 -70.296875 C 103.9375 -68.472656 101.253906 -67.207031 98.953125 -66.5 C 96.660156 -65.789062 95.515625 -65.4375 95.515625 -65.4375 Z M 56.59375 -93.75 L 56.59375 -77.828125 L 62.796875 -77.828125 C 65.859375 -77.828125 68.242188 -78.59375 69.953125 -80.125 C 71.660156 -81.65625 72.515625 -83.539062 72.515625 -85.78125 C 72.515625 -88.019531 71.660156 -89.90625 69.953125 -91.4375 C 68.242188 -92.976562 65.859375 -93.75 62.796875 -93.75 Z M 63.671875 -30.0625 C 67.210938 -30.0625 69.863281 -30.882812 71.625 -32.53125 C 73.394531 -34.1875 74.28125 -36.3125 74.28125 -38.90625 C 74.28125 -41.625 73.394531 -43.773438 71.625 -45.359375 C 69.863281 -46.953125 67.210938 -47.75 63.671875 -47.75 L 56.59375 -47.75 L 56.59375 -30.0625 C 56.59375 -30.0625 57.328125 -30.0625 58.796875 -30.0625 C 60.273438 -30.0625 61.898438 -30.0625 63.671875 -30.0625 Z M 63.671875 -30.0625 "/></g></g></g><g fill="#ffffff" fill-opacity="1"><g transform="translate(129.119312, 268.692972)"><g><path d="M 77.828125 -40.6875 C 78.765625 -40.6875 79.585938 -40.6875 80.296875 -40.6875 C 81.003906 -40.6875 81.359375 -40.6875 81.359375 -40.6875 L 81.359375 -61.90625 L 123.8125 -61.90625 L 123.8125 -18.578125 C 123.8125 -18.578125 122.804688 -17.515625 120.796875 -15.390625 C 118.796875 -13.265625 115.671875 -10.785156 111.421875 -7.953125 C 107.179688 -5.128906 101.847656 -2.65625 95.421875 -0.53125 C 88.992188 1.59375 81.359375 2.65625 72.515625 2.65625 C 63.203125 2.65625 54.59375 1.003906 46.6875 -2.296875 C 38.789062 -5.597656 31.863281 -10.164062 25.90625 -16 C 19.957031 -21.84375 15.332031 -28.679688 12.03125 -36.515625 C 8.726562 -44.359375 7.078125 -52.820312 7.078125 -61.90625 C 7.078125 -70.988281 8.726562 -79.445312 12.03125 -87.28125 C 15.332031 -95.125 19.957031 -101.960938 25.90625 -107.796875 C 31.863281 -113.640625 38.789062 -118.210938 46.6875 -121.515625 C 54.59375 -124.816406 63.203125 -126.46875 72.515625 -126.46875 C 80.890625 -126.46875 88.203125 -125.492188 94.453125 -123.546875 C 100.703125 -121.597656 105.859375 -119.328125 109.921875 -116.734375 C 113.992188 -114.140625 117.03125 -111.867188 119.03125 -109.921875 C 121.039062 -107.984375 122.046875 -107.015625 122.046875 -107.015625 L 100.8125 -73.40625 C 100.8125 -73.40625 99.75 -74.226562 97.625 -75.875 C 95.507812 -77.53125 92.710938 -79.148438 89.234375 -80.734375 C 85.753906 -82.328125 81.953125 -83.125 77.828125 -83.125 C 71.691406 -83.125 66.617188 -81.148438 62.609375 -77.203125 C 58.597656 -73.253906 56.59375 -68.15625 56.59375 -61.90625 C 56.59375 -55.769531 58.597656 -50.695312 62.609375 -46.6875 C 66.617188 -42.6875 71.691406 -40.6875 77.828125 -40.6875 Z M 77.828125 -40.6875 "/></g></g></g><g fill="#ffffff" fill-opacity="1"><g transform="translate(260.007373, 268.692972)"><g><path d="M 56.59375 -44.21875 L 56.59375 -35.375 L 109.65625 -35.375 L 109.65625 0 L 10.609375 0 L 10.609375 -123.8125 L 106.125 -123.8125 L 106.125 -88.4375 L 56.59375 -88.4375 L 56.59375 -79.59375 L 102.59375 -79.59375 L 102.59375 -44.21875 Z M 56.59375 -44.21875 "/></g></g></g><g clip-path="url(#82337ea4a2)"><g clip-path="url(#259fe83e8b)"><path fill="#ffffff" d="M 75 54.34375 L 187.5 54.34375 L 187.5 166.84375 L 75 166.84375 Z M 75 54.34375 " fill-opacity="1" fill-rule="nonzero"/></g></g><g fill="#ffffff" fill-opacity="1"><g transform="translate(10.488285, 301.815155)"><g><path d="M 8.3125 -18.203125 L 8.3125 -5.984375 L 15.34375 -5.984375 L 15.34375 0 L 1.5625 0 L 1.5625 -18.203125 Z M 8.3125 -18.203125 "/></g></g></g><g fill="#ffffff" fill-opacity="1"><g transform="translate(26.343535, 301.815155)"><g><path d="M 7.40625 -14.171875 C 8.882812 -14.171875 10.195312 -13.84375 11.34375 -13.1875 C 12.5 -12.539062 13.410156 -11.664062 14.078125 -10.5625 C 14.742188 -9.46875 15.078125 -8.242188 15.078125 -6.890625 C 15.078125 -5.773438 15.078125 -4.601562 15.078125 -3.375 C 15.078125 -2.144531 15.078125 -1.019531 15.078125 0 L 9.09375 0 L 8.578125 -1.5625 C 8.578125 -1.5625 8.507812 -1.460938 8.375 -1.265625 C 8.25 -1.066406 8.046875 -0.835938 7.765625 -0.578125 C 7.492188 -0.328125 7.144531 -0.101562 6.71875 0.09375 C 6.289062 0.289062 5.785156 0.390625 5.203125 0.390625 C 4.242188 0.390625 3.410156 0.203125 2.703125 -0.171875 C 2.003906 -0.546875 1.460938 -1.054688 1.078125 -1.703125 C 0.703125 -2.347656 0.515625 -3.082031 0.515625 -3.90625 C 0.515625 -4.726562 0.726562 -5.460938 1.15625 -6.109375 C 1.582031 -6.753906 2.253906 -7.257812 3.171875 -7.625 C 4.085938 -8 5.285156 -8.1875 6.765625 -8.1875 L 8.84375 -8.1875 C 8.84375 -8.1875 8.789062 -8.304688 8.6875 -8.546875 C 8.582031 -8.796875 8.363281 -9.035156 8.03125 -9.265625 C 7.707031 -9.503906 7.195312 -9.625 6.5 -9.625 C 6.0625 -9.625 5.664062 -9.535156 5.3125 -9.359375 C 4.957031 -9.179688 4.675781 -9.003906 4.46875 -8.828125 C 4.257812 -8.660156 4.15625 -8.578125 4.15625 -8.578125 L 1.953125 -12.09375 C 1.953125 -12.09375 2.070312 -12.195312 2.3125 -12.40625 C 2.550781 -12.613281 2.898438 -12.851562 3.359375 -13.125 C 3.828125 -13.40625 4.394531 -13.648438 5.0625 -13.859375 C 5.738281 -14.066406 6.519531 -14.171875 7.40625 -14.171875 Z M 7.546875 -3.765625 C 7.867188 -3.765625 8.164062 -3.9375 8.4375 -4.28125 C 8.707031 -4.632812 8.84375 -5.203125 8.84375 -5.984375 C 8.132812 -5.984375 7.609375 -5.84375 7.265625 -5.5625 C 6.929688 -5.28125 6.765625 -4.941406 6.765625 -4.546875 C 6.765625 -4.359375 6.84375 -4.179688 7 -4.015625 C 7.164062 -3.847656 7.347656 -3.765625 7.546875 -3.765625 Z M 7.546875 -3.765625 "/></g></g></g><g fill="#ffffff" fill-opacity="1"><g transform="translate(42.458704, 301.815155)"><g/></g></g><g fill="#ffffff" fill-opacity="1"><g transform="translate(47.657148, 301.815155)"><g><path d="M 14.046875 -9.625 L 14.046875 -9.484375 C 14.046875 -9.484375 14.179688 -9.445312 14.453125 -9.375 C 14.734375 -9.3125 15.082031 -9.1875 15.5 -9 C 15.914062 -8.820312 16.332031 -8.5625 16.75 -8.21875 C 17.164062 -7.882812 17.507812 -7.445312 17.78125 -6.90625 C 18.0625 -6.375 18.203125 -5.71875 18.203125 -4.9375 C 18.203125 -3.988281 17.914062 -3.117188 17.34375 -2.328125 C 16.769531 -1.535156 15.835938 -0.90625 14.546875 -0.4375 C 13.253906 0.03125 11.523438 0.265625 9.359375 0.265625 C 7.972656 0.265625 6.6875 0.238281 5.5 0.1875 C 4.3125 0.144531 3.359375 0.101562 2.640625 0.0625 C 1.921875 0.0195312 1.5625 0 1.5625 0 L 1.5625 -18.203125 C 1.5625 -18.203125 1.921875 -18.222656 2.640625 -18.265625 C 3.359375 -18.304688 4.300781 -18.347656 5.46875 -18.390625 C 6.644531 -18.429688 7.898438 -18.453125 9.234375 -18.453125 C 11.191406 -18.453125 12.765625 -18.21875 13.953125 -17.75 C 15.148438 -17.289062 16.023438 -16.675781 16.578125 -15.90625 C 17.140625 -15.144531 17.421875 -14.304688 17.421875 -13.390625 C 17.421875 -12.609375 17.25 -11.96875 16.90625 -11.46875 C 16.570312 -10.976562 16.175781 -10.597656 15.71875 -10.328125 C 15.269531 -10.066406 14.878906 -9.882812 14.546875 -9.78125 C 14.210938 -9.675781 14.046875 -9.625 14.046875 -9.625 Z M 8.3125 -13.78125 L 8.3125 -11.4375 L 9.234375 -11.4375 C 9.679688 -11.4375 10.03125 -11.546875 10.28125 -11.765625 C 10.53125 -11.992188 10.65625 -12.273438 10.65625 -12.609375 C 10.65625 -12.941406 10.53125 -13.21875 10.28125 -13.4375 C 10.03125 -13.664062 9.679688 -13.78125 9.234375 -13.78125 Z M 9.359375 -4.421875 C 9.878906 -4.421875 10.269531 -4.539062 10.53125 -4.78125 C 10.789062 -5.019531 10.921875 -5.332031 10.921875 -5.71875 C 10.921875 -6.113281 10.789062 -6.425781 10.53125 -6.65625 C 10.269531 -6.894531 9.878906 -7.015625 9.359375 -7.015625 L 8.3125 -7.015625 L 8.3125 -4.421875 C 8.3125 -4.421875 8.421875 -4.421875 8.640625 -4.421875 C 8.859375 -4.421875 9.097656 -4.421875 9.359375 -4.421875 Z M 9.359375 -4.421875 "/></g></g></g><g fill="#ffffff" fill-opacity="1"><g transform="translate(66.631463, 301.815155)"><g><path d="M 7.796875 -12.21875 C 7.796875 -12.21875 7.859375 -12.316406 7.984375 -12.515625 C 8.117188 -12.710938 8.316406 -12.9375 8.578125 -13.1875 C 8.835938 -13.445312 9.160156 -13.675781 9.546875 -13.875 C 9.941406 -14.070312 10.398438 -14.171875 10.921875 -14.171875 C 11.441406 -14.171875 11.875 -14.101562 12.21875 -13.96875 C 12.5625 -13.84375 12.734375 -13.78125 12.734375 -13.78125 L 11.703125 -8.0625 C 11.703125 -8.0625 11.601562 -8.101562 11.40625 -8.1875 C 11.21875 -8.269531 10.976562 -8.351562 10.6875 -8.4375 C 10.40625 -8.53125 10.132812 -8.578125 9.875 -8.578125 C 9.238281 -8.578125 8.691406 -8.328125 8.234375 -7.828125 C 7.773438 -7.335938 7.546875 -6.632812 7.546875 -5.71875 L 7.546875 0 L 1.296875 0 L 1.296875 -13.78125 L 7.28125 -13.78125 Z M 7.796875 -12.21875 "/></g></g></g><g fill="#ffffff" fill-opacity="1"><g transform="translate(79.107731, 301.815155)"><g><path d="M 1.296875 -13.78125 L 7.546875 -13.78125 L 7.546875 0 L 1.296875 0 Z M 1.296875 -15.34375 L 1.296875 -20.28125 L 7.546875 -20.28125 L 7.546875 -15.34375 Z M 1.296875 -15.34375 "/></g></g></g><g fill="#ffffff" fill-opacity="1"><g transform="translate(87.945087, 301.815155)"><g><path d="M 9.875 -0.515625 L 9.875 -2.078125 C 9.875 -2.078125 9.804688 -1.976562 9.671875 -1.78125 C 9.535156 -1.582031 9.320312 -1.359375 9.03125 -1.109375 C 8.75 -0.859375 8.378906 -0.628906 7.921875 -0.421875 C 7.460938 -0.222656 6.898438 -0.125 6.234375 -0.125 C 5.285156 -0.125 4.394531 -0.398438 3.5625 -0.953125 C 2.726562 -1.515625 2.054688 -2.316406 1.546875 -3.359375 C 1.035156 -4.410156 0.78125 -5.675781 0.78125 -7.15625 C 0.78125 -8.625 1.035156 -9.878906 1.546875 -10.921875 C 2.054688 -11.972656 2.726562 -12.773438 3.5625 -13.328125 C 4.394531 -13.890625 5.285156 -14.171875 6.234375 -14.171875 C 6.898438 -14.171875 7.460938 -14.070312 7.921875 -13.875 C 8.378906 -13.675781 8.75 -13.445312 9.03125 -13.1875 C 9.320312 -12.9375 9.535156 -12.710938 9.671875 -12.515625 C 9.804688 -12.316406 9.875 -12.21875 9.875 -12.21875 L 10.40625 -13.78125 L 16.125 -13.78125 L 16.125 -0.515625 C 16.125 0.554688 15.914062 1.5625 15.5 2.5 C 15.09375 3.445312 14.523438 4.273438 13.796875 4.984375 C 13.078125 5.703125 12.238281 6.265625 11.28125 6.671875 C 10.332031 7.078125 9.300781 7.28125 8.1875 7.28125 C 7.25 7.28125 6.414062 7.164062 5.6875 6.9375 C 4.96875 6.71875 4.351562 6.460938 3.84375 6.171875 C 3.34375 5.890625 2.96875 5.632812 2.71875 5.40625 C 2.46875 5.175781 2.34375 5.0625 2.34375 5.0625 L 4.9375 0.90625 C 4.9375 0.90625 5.039062 0.992188 5.25 1.171875 C 5.457031 1.347656 5.738281 1.519531 6.09375 1.6875 C 6.445312 1.863281 6.84375 1.953125 7.28125 1.953125 C 8.0625 1.953125 8.6875 1.71875 9.15625 1.25 C 9.632812 0.78125 9.875 0.191406 9.875 -0.515625 Z M 7.28125 -7.15625 C 7.28125 -6.632812 7.421875 -6.21875 7.703125 -5.90625 C 7.992188 -5.601562 8.328125 -5.453125 8.703125 -5.453125 C 9.109375 -5.453125 9.445312 -5.601562 9.71875 -5.90625 C 10 -6.21875 10.140625 -6.632812 10.140625 -7.15625 C 10.140625 -7.675781 10 -8.085938 9.71875 -8.390625 C 9.445312 -8.691406 9.109375 -8.84375 8.703125 -8.84375 C 8.328125 -8.84375 7.992188 -8.691406 7.703125 -8.390625 C 7.421875 -8.085938 7.28125 -7.675781 7.28125 -7.15625 Z M 7.28125 -7.15625 "/></g></g></g><g fill="#ffffff" fill-opacity="1"><g transform="translate(105.359869, 301.815155)"><g><path d="M 7.40625 -14.171875 C 8.882812 -14.171875 10.195312 -13.84375 11.34375 -13.1875 C 12.5 -12.539062 13.410156 -11.664062 14.078125 -10.5625 C 14.742188 -9.46875 15.078125 -8.242188 15.078125 -6.890625 C 15.078125 -5.773438 15.078125 -4.601562 15.078125 -3.375 C 15.078125 -2.144531 15.078125 -1.019531 15.078125 0 L 9.09375 0 L 8.578125 -1.5625 C 8.578125 -1.5625 8.507812 -1.460938 8.375 -1.265625 C 8.25 -1.066406 8.046875 -0.835938 7.765625 -0.578125 C 7.492188 -0.328125 7.144531 -0.101562 6.71875 0.09375 C 6.289062 0.289062 5.785156 0.390625 5.203125 0.390625 C 4.242188 0.390625 3.410156 0.203125 2.703125 -0.171875 C 2.003906 -0.546875 1.460938 -1.054688 1.078125 -1.703125 C 0.703125 -2.347656 0.515625 -3.082031 0.515625 -3.90625 C 0.515625 -4.726562 0.726562 -5.460938 1.15625 -6.109375 C 1.582031 -6.753906 2.253906 -7.257812 3.171875 -7.625 C 4.085938 -8 5.285156 -8.1875 6.765625 -8.1875 L 8.84375 -8.1875 C 8.84375 -8.1875 8.789062 -8.304688 8.6875 -8.546875 C 8.582031 -8.796875 8.363281 -9.035156 8.03125 -9.265625 C 7.707031 -9.503906 7.195312 -9.625 6.5 -9.625 C 6.0625 -9.625 5.664062 -9.535156 5.3125 -9.359375 C 4.957031 -9.179688 4.675781 -9.003906 4.46875 -8.828125 C 4.257812 -8.660156 4.15625 -8.578125 4.15625 -8.578125 L 1.953125 -12.09375 C 1.953125 -12.09375 2.070312 -12.195312 2.3125 -12.40625 C 2.550781 -12.613281 2.898438 -12.851562 3.359375 -13.125 C 3.828125 -13.40625 4.394531 -13.648438 5.0625 -13.859375 C 5.738281 -14.066406 6.519531 -14.171875 7.40625 -14.171875 Z M 7.546875 -3.765625 C 7.867188 -3.765625 8.164062 -3.9375 8.4375 -4.28125 C 8.707031 -4.632812 8.84375 -5.203125 8.84375 -5.984375 C 8.132812 -5.984375 7.609375 -5.84375 7.265625 -5.5625 C 6.929688 -5.28125 6.765625 -4.941406 6.765625 -4.546875 C 6.765625 -4.359375 6.84375 -4.179688 7 -4.015625 C 7.164062 -3.847656 7.347656 -3.765625 7.546875 -3.765625 Z M 7.546875 -3.765625 "/></g></g></g><g fill="#ffffff" fill-opacity="1"><g transform="translate(121.475037, 301.815155)"><g><path d="M 2.34375 -8.578125 L 0.515625 -8.578125 L 0.515625 -13.78125 L 2.34375 -13.78125 L 2.34375 -18.203125 L 8.578125 -18.203125 L 8.578125 -13.78125 L 10.921875 -13.78125 L 10.921875 -8.578125 L 8.578125 -8.578125 L 8.578125 -6.375 C 8.578125 -5.851562 8.695312 -5.460938 8.9375 -5.203125 C 9.1875 -4.941406 9.5 -4.8125 9.875 -4.8125 C 10.132812 -4.8125 10.375 -4.832031 10.59375 -4.875 C 10.8125 -4.914062 10.921875 -4.9375 10.921875 -4.9375 L 10.921875 0.265625 C 10.921875 0.265625 10.691406 0.304688 10.234375 0.390625 C 9.785156 0.472656 9.234375 0.515625 8.578125 0.515625 C 6.640625 0.515625 5.113281 -0.0625 4 -1.21875 C 2.894531 -2.382812 2.34375 -4.101562 2.34375 -6.375 Z M 2.34375 -8.578125 "/></g></g></g><g fill="#ffffff" fill-opacity="1"><g transform="translate(133.691376, 301.815155)"><g><path d="M 7.40625 -14.171875 C 8.882812 -14.171875 10.195312 -13.84375 11.34375 -13.1875 C 12.5 -12.539062 13.410156 -11.664062 14.078125 -10.5625 C 14.742188 -9.46875 15.078125 -8.242188 15.078125 -6.890625 C 15.078125 -5.773438 15.078125 -4.601562 15.078125 -3.375 C 15.078125 -2.144531 15.078125 -1.019531 15.078125 0 L 9.09375 0 L 8.578125 -1.5625 C 8.578125 -1.5625 8.507812 -1.460938 8.375 -1.265625 C 8.25 -1.066406 8.046875 -0.835938 7.765625 -0.578125 C 7.492188 -0.328125 7.144531 -0.101562 6.71875 0.09375 C 6.289062 0.289062 5.785156 0.390625 5.203125 0.390625 C 4.242188 0.390625 3.410156 0.203125 2.703125 -0.171875 C 2.003906 -0.546875 1.460938 -1.054688 1.078125 -1.703125 C 0.703125 -2.347656 0.515625 -3.082031 0.515625 -3.90625 C 0.515625 -4.726562 0.726562 -5.460938 1.15625 -6.109375 C 1.582031 -6.753906 2.253906 -7.257812 3.171875 -7.625 C 4.085938 -8 5.285156 -8.1875 6.765625 -8.1875 L 8.84375 -8.1875 C 8.84375 -8.1875 8.789062 -8.304688 8.6875 -8.546875 C 8.582031 -8.796875 8.363281 -9.035156 8.03125 -9.265625 C 7.707031 -9.503906 7.195312 -9.625 6.5 -9.625 C 6.0625 -9.625 5.664062 -9.535156 5.3125 -9.359375 C 4.957031 -9.179688 4.675781 -9.003906 4.46875 -8.828125 C 4.257812 -8.660156 4.15625 -8.578125 4.15625 -8.578125 L 1.953125 -12.09375 C 1.953125 -12.09375 2.070312 -12.195312 2.3125 -12.40625 C 2.550781 -12.613281 2.898438 -12.851562 3.359375 -13.125 C 3.828125 -13.40625 4.394531 -13.648438 5.0625 -13.859375 C 5.738281 -14.066406 6.519531 -14.171875 7.40625 -14.171875 Z M 7.546875 -3.765625 C 7.867188 -3.765625 8.164062 -3.9375 8.4375 -4.28125 C 8.707031 -4.632812 8.84375 -5.203125 8.84375 -5.984375 C 8.132812 -5.984375 7.609375 -5.84375 7.265625 -5.5625 C 6.929688 -5.28125 6.765625 -4.941406 6.765625 -4.546875 C 6.765625 -4.359375 6.84375 -4.179688 7 -4.015625 C 7.164062 -3.847656 7.347656 -3.765625 7.546875 -3.765625 Z M 7.546875 -3.765625 "/></g></g></g><g fill="#ffffff" fill-opacity="1"><g transform="translate(149.806544, 301.815155)"><g/></g></g><g fill="#ffffff" fill-opacity="1"><g transform="translate(155.004989, 301.815155)"><g><path d="M 0.78125 -6.890625 C 0.78125 -8.453125 1.035156 -9.773438 1.546875 -10.859375 C 2.054688 -11.941406 2.726562 -12.765625 3.5625 -13.328125 C 4.394531 -13.890625 5.285156 -14.171875 6.234375 -14.171875 C 6.898438 -14.171875 7.460938 -14.070312 7.921875 -13.875 C 8.378906 -13.675781 8.75 -13.445312 9.03125 -13.1875 C 9.320312 -12.9375 9.535156 -12.710938 9.671875 -12.515625 C 9.804688 -12.316406 9.875 -12.21875 9.875 -12.21875 L 9.875 -19.234375 L 16.125 -19.234375 L 16.125 0 L 10.40625 0 C 10.226562 -0.519531 10.101562 -0.890625 10.03125 -1.109375 C 9.96875 -1.328125 9.925781 -1.457031 9.90625 -1.5 C 9.882812 -1.539062 9.875 -1.5625 9.875 -1.5625 C 9.875 -1.5625 9.804688 -1.460938 9.671875 -1.265625 C 9.535156 -1.066406 9.320312 -0.835938 9.03125 -0.578125 C 8.75 -0.328125 8.378906 -0.101562 7.921875 0.09375 C 7.460938 0.289062 6.898438 0.390625 6.234375 0.390625 C 5.285156 0.390625 4.394531 0.109375 3.5625 -0.453125 C 2.726562 -1.015625 2.054688 -1.835938 1.546875 -2.921875 C 1.035156 -4.003906 0.78125 -5.328125 0.78125 -6.890625 Z M 7.28125 -6.890625 C 7.28125 -6.242188 7.421875 -5.753906 7.703125 -5.421875 C 7.992188 -5.097656 8.328125 -4.9375 8.703125 -4.9375 C 9.109375 -4.9375 9.445312 -5.097656 9.71875 -5.421875 C 10 -5.753906 10.140625 -6.242188 10.140625 -6.890625 C 10.140625 -7.546875 10 -8.035156 9.71875 -8.359375 C 9.445312 -8.679688 9.109375 -8.84375 8.703125 -8.84375 C 8.328125 -8.84375 7.992188 -8.679688 7.703125 -8.359375 C 7.421875 -8.035156 7.28125 -7.546875 7.28125 -6.890625 Z M 7.28125 -6.890625 "/></g></g></g><g fill="#ffffff" fill-opacity="1"><g transform="translate(172.419771, 301.815155)"><g><path d="M 8.0625 -14.171875 C 9.0625 -14.171875 10.003906 -13.984375 10.890625 -13.609375 C 11.773438 -13.234375 12.550781 -12.710938 13.21875 -12.046875 C 13.882812 -11.378906 14.40625 -10.601562 14.78125 -9.71875 C 15.15625 -8.832031 15.34375 -7.890625 15.34375 -6.890625 C 15.34375 -6.859375 15.34375 -6.738281 15.34375 -6.53125 C 15.34375 -6.332031 15.34375 -6.132812 15.34375 -5.9375 C 15.34375 -5.738281 15.34375 -5.625 15.34375 -5.59375 L 7.015625 -5.59375 C 7.015625 -5.59375 7.066406 -5.472656 7.171875 -5.234375 C 7.273438 -5.003906 7.488281 -4.765625 7.8125 -4.515625 C 8.144531 -4.273438 8.660156 -4.15625 9.359375 -4.15625 C 9.796875 -4.15625 10.191406 -4.242188 10.546875 -4.421875 C 10.898438 -4.597656 11.179688 -4.769531 11.390625 -4.9375 C 11.597656 -5.113281 11.703125 -5.203125 11.703125 -5.203125 L 13.90625 -1.6875 C 13.90625 -1.6875 13.785156 -1.582031 13.546875 -1.375 C 13.304688 -1.164062 12.953125 -0.921875 12.484375 -0.640625 C 12.023438 -0.367188 11.457031 -0.128906 10.78125 0.078125 C 10.113281 0.285156 9.335938 0.390625 8.453125 0.390625 C 6.972656 0.390625 5.65625 0.0664062 4.5 -0.578125 C 3.351562 -1.234375 2.445312 -2.113281 1.78125 -3.21875 C 1.113281 -4.332031 0.78125 -5.554688 0.78125 -6.890625 C 0.78125 -7.890625 0.960938 -8.832031 1.328125 -9.71875 C 1.703125 -10.601562 2.222656 -11.378906 2.890625 -12.046875 C 3.566406 -12.710938 4.34375 -13.234375 5.21875 -13.609375 C 6.101562 -13.984375 7.050781 -14.171875 8.0625 -14.171875 Z M 6.890625 -8.0625 L 9.234375 -8.0625 C 9.234375 -8.582031 9.117188 -8.972656 8.890625 -9.234375 C 8.660156 -9.492188 8.382812 -9.625 8.0625 -9.625 C 7.726562 -9.625 7.445312 -9.492188 7.21875 -9.234375 C 7 -8.972656 6.890625 -8.582031 6.890625 -8.0625 Z M 6.890625 -8.0625 "/></g></g></g><g fill="#ffffff" fill-opacity="1"><g transform="translate(188.275021, 301.815155)"><g><path d="M 1.296875 -13.78125 L 7.546875 -13.78125 L 7.546875 0 L 1.296875 0 Z M 1.296875 -15.34375 L 1.296875 -20.28125 L 7.546875 -20.28125 L 7.546875 -15.34375 Z M 1.296875 -15.34375 "/></g></g></g><g fill="#ffffff" fill-opacity="1"><g transform="translate(197.112377, 301.815155)"><g/></g></g><g fill="#ffffff" fill-opacity="1"><g transform="translate(202.310821, 301.815155)"><g><path d="M 11.4375 -5.984375 C 11.570312 -5.984375 11.691406 -5.984375 11.796875 -5.984375 C 11.898438 -5.984375 11.953125 -5.984375 11.953125 -5.984375 L 11.953125 -9.09375 L 18.203125 -9.09375 L 18.203125 -2.734375 C 18.203125 -2.734375 18.050781 -2.578125 17.75 -2.265625 C 17.457031 -1.953125 17 -1.585938 16.375 -1.171875 C 15.75 -0.753906 14.960938 -0.390625 14.015625 -0.078125 C 13.078125 0.234375 11.957031 0.390625 10.65625 0.390625 C 9.289062 0.390625 8.023438 0.148438 6.859375 -0.328125 C 5.703125 -0.816406 4.6875 -1.488281 3.8125 -2.34375 C 2.9375 -3.207031 2.253906 -4.210938 1.765625 -5.359375 C 1.285156 -6.515625 1.046875 -7.757812 1.046875 -9.09375 C 1.046875 -10.4375 1.285156 -11.679688 1.765625 -12.828125 C 2.253906 -13.984375 2.9375 -14.988281 3.8125 -15.84375 C 4.6875 -16.707031 5.703125 -17.378906 6.859375 -17.859375 C 8.023438 -18.347656 9.289062 -18.59375 10.65625 -18.59375 C 11.882812 -18.59375 12.957031 -18.445312 13.875 -18.15625 C 14.800781 -17.875 15.5625 -17.539062 16.15625 -17.15625 C 16.757812 -16.78125 17.207031 -16.445312 17.5 -16.15625 C 17.789062 -15.875 17.9375 -15.734375 17.9375 -15.734375 L 14.8125 -10.796875 C 14.8125 -10.796875 14.65625 -10.914062 14.34375 -11.15625 C 14.039062 -11.394531 13.628906 -11.628906 13.109375 -11.859375 C 12.597656 -12.097656 12.039062 -12.21875 11.4375 -12.21875 C 10.539062 -12.21875 9.796875 -11.925781 9.203125 -11.34375 C 8.609375 -10.769531 8.3125 -10.019531 8.3125 -9.09375 C 8.3125 -8.195312 8.609375 -7.453125 9.203125 -6.859375 C 9.796875 -6.273438 10.539062 -5.984375 11.4375 -5.984375 Z M 11.4375 -5.984375 "/></g></g></g><g fill="#ffffff" fill-opacity="1"><g transform="translate(221.545065, 301.815155)"><g><path d="M 8.0625 -14.171875 C 9.0625 -14.171875 10.003906 -13.984375 10.890625 -13.609375 C 11.773438 -13.234375 12.550781 -12.710938 13.21875 -12.046875 C 13.882812 -11.378906 14.40625 -10.601562 14.78125 -9.71875 C 15.15625 -8.832031 15.34375 -7.890625 15.34375 -6.890625 C 15.34375 -6.859375 15.34375 -6.738281 15.34375 -6.53125 C 15.34375 -6.332031 15.34375 -6.132812 15.34375 -5.9375 C 15.34375 -5.738281 15.34375 -5.625 15.34375 -5.59375 L 7.015625 -5.59375 C 7.015625 -5.59375 7.066406 -5.472656 7.171875 -5.234375 C 7.273438 -5.003906 7.488281 -4.765625 7.8125 -4.515625 C 8.144531 -4.273438 8.660156 -4.15625 9.359375 -4.15625 C 9.796875 -4.15625 10.191406 -4.242188 10.546875 -4.421875 C 10.898438 -4.597656 11.179688 -4.769531 11.390625 -4.9375 C 11.597656 -5.113281 11.703125 -5.203125 11.703125 -5.203125 L 13.90625 -1.6875 C 13.90625 -1.6875 13.785156 -1.582031 13.546875 -1.375 C 13.304688 -1.164062 12.953125 -0.921875 12.484375 -0.640625 C 12.023438 -0.367188 11.457031 -0.128906 10.78125 0.078125 C 10.113281 0.285156 9.335938 0.390625 8.453125 0.390625 C 6.972656 0.390625 5.65625 0.0664062 4.5 -0.578125 C 3.351562 -1.234375 2.445312 -2.113281 1.78125 -3.21875 C 1.113281 -4.332031 0.78125 -5.554688 0.78125 -6.890625 C 0.78125 -7.890625 0.960938 -8.832031 1.328125 -9.71875 C 1.703125 -10.601562 2.222656 -11.378906 2.890625 -12.046875 C 3.566406 -12.710938 4.34375 -13.234375 5.21875 -13.609375 C 6.101562 -13.984375 7.050781 -14.171875 8.0625 -14.171875 Z M 6.890625 -8.0625 L 9.234375 -8.0625 C 9.234375 -8.582031 9.117188 -8.972656 8.890625 -9.234375 C 8.660156 -9.492188 8.382812 -9.625 8.0625 -9.625 C 7.726562 -9.625 7.445312 -9.492188 7.21875 -9.234375 C 7 -8.972656 6.890625 -8.582031 6.890625 -8.0625 Z M 6.890625 -8.0625 "/></g></g></g><g fill="#ffffff" fill-opacity="1"><g transform="translate(237.400304, 301.815155)"><g><path d="M 8.0625 -14.171875 C 9.0625 -14.171875 10.003906 -13.984375 10.890625 -13.609375 C 11.773438 -13.234375 12.550781 -12.710938 13.21875 -12.046875 C 13.882812 -11.378906 14.40625 -10.601562 14.78125 -9.71875 C 15.15625 -8.832031 15.34375 -7.890625 15.34375 -6.890625 C 15.34375 -6.859375 15.34375 -6.738281 15.34375 -6.53125 C 15.34375 -6.332031 15.34375 -6.132812 15.34375 -5.9375 C 15.34375 -5.738281 15.34375 -5.625 15.34375 -5.59375 L 7.015625 -5.59375 C 7.015625 -5.59375 7.066406 -5.472656 7.171875 -5.234375 C 7.273438 -5.003906 7.488281 -4.765625 7.8125 -4.515625 C 8.144531 -4.273438 8.660156 -4.15625 9.359375 -4.15625 C 9.796875 -4.15625 10.191406 -4.242188 10.546875 -4.421875 C 10.898438 -4.597656 11.179688 -4.769531 11.390625 -4.9375 C 11.597656 -5.113281 11.703125 -5.203125 11.703125 -5.203125 L 13.90625 -1.6875 C 13.90625 -1.6875 13.785156 -1.582031 13.546875 -1.375 C 13.304688 -1.164062 12.953125 -0.921875 12.484375 -0.640625 C 12.023438 -0.367188 11.457031 -0.128906 10.78125 0.078125 C 10.113281 0.285156 9.335938 0.390625 8.453125 0.390625 C 6.972656 0.390625 5.65625 0.0664062 4.5 -0.578125 C 3.351562 -1.234375 2.445312 -2.113281 1.78125 -3.21875 C 1.113281 -4.332031 0.78125 -5.554688 0.78125 -6.890625 C 0.78125 -7.890625 0.960938 -8.832031 1.328125 -9.71875 C 1.703125 -10.601562 2.222656 -11.378906 2.890625 -12.046875 C 3.566406 -12.710938 4.34375 -13.234375 5.21875 -13.609375 C 6.101562 -13.984375 7.050781 -14.171875 8.0625 -14.171875 Z M 6.890625 -8.0625 L 9.234375 -8.0625 C 9.234375 -8.582031 9.117188 -8.972656 8.890625 -9.234375 C 8.660156 -9.492188 8.382812 -9.625 8.0625 -9.625 C 7.726562 -9.625 7.445312 -9.492188 7.21875 -9.234375 C 7 -8.972656 6.890625 -8.582031 6.890625 -8.0625 Z M 6.890625 -8.0625 "/></g></g></g><g fill="#ffffff" fill-opacity="1"><g transform="translate(253.255543, 301.815155)"><g><path d="M 16.515625 -13.78125 L 12.875 -7.015625 L 17.03125 0 L 10.140625 0 L 7.546875 -5.453125 L 7.546875 0 L 1.296875 0 L 1.296875 -19.234375 L 7.546875 -19.234375 L 7.546875 -8.578125 L 9.75 -13.78125 Z M 16.515625 -13.78125 "/></g></g></g><g fill="#ffffff" fill-opacity="1"><g transform="translate(270.020518, 301.815155)"><g/></g></g><g fill="#ffffff" fill-opacity="1"><g transform="translate(275.218951, 301.815155)"><g><path d="M 8.3125 -6.5 L 8.3125 -5.203125 L 16.125 -5.203125 L 16.125 0 L 1.5625 0 L 1.5625 -18.203125 L 15.59375 -18.203125 L 15.59375 -13 L 8.3125 -13 L 8.3125 -11.703125 L 15.078125 -11.703125 L 15.078125 -6.5 Z M 8.3125 -6.5 "/></g></g></g><g fill="#ffffff" fill-opacity="1"><g transform="translate(292.113885, 301.815155)"><g><path d="M 12.875 -4.15625 C 12.875 -3.34375 12.640625 -2.585938 12.171875 -1.890625 C 11.710938 -1.203125 11.03125 -0.648438 10.125 -0.234375 C 9.226562 0.179688 8.109375 0.390625 6.765625 0.390625 C 5.679688 0.390625 4.738281 0.265625 3.9375 0.015625 C 3.132812 -0.234375 2.457031 -0.519531 1.90625 -0.84375 C 1.363281 -1.164062 0.953125 -1.453125 0.671875 -1.703125 C 0.398438 -1.953125 0.265625 -2.078125 0.265625 -2.078125 L 2.203125 -5.203125 C 2.203125 -5.203125 2.335938 -5.09375 2.609375 -4.875 C 2.878906 -4.65625 3.257812 -4.4375 3.75 -4.21875 C 4.25 -4.007812 4.816406 -3.90625 5.453125 -3.90625 C 5.648438 -3.90625 5.804688 -3.957031 5.921875 -4.0625 C 6.046875 -4.175781 6.109375 -4.296875 6.109375 -4.421875 C 6.109375 -4.578125 5.9375 -4.722656 5.59375 -4.859375 C 5.257812 -4.992188 4.84375 -5.164062 4.34375 -5.375 C 3.84375 -5.582031 3.332031 -5.859375 2.8125 -6.203125 C 2.300781 -6.554688 1.878906 -7.003906 1.546875 -7.546875 C 1.210938 -8.097656 1.046875 -8.789062 1.046875 -9.625 C 1.046875 -10.457031 1.273438 -11.210938 1.734375 -11.890625 C 2.191406 -12.578125 2.875 -13.128906 3.78125 -13.546875 C 4.6875 -13.960938 5.8125 -14.171875 7.15625 -14.171875 C 8.03125 -14.171875 8.816406 -14.054688 9.515625 -13.828125 C 10.222656 -13.609375 10.820312 -13.351562 11.3125 -13.0625 C 11.8125 -12.78125 12.195312 -12.523438 12.46875 -12.296875 C 12.738281 -12.066406 12.875 -11.953125 12.875 -11.953125 L 10.921875 -8.84375 C 10.921875 -8.84375 10.8125 -8.925781 10.59375 -9.09375 C 10.375 -9.269531 10.082031 -9.441406 9.71875 -9.609375 C 9.351562 -9.785156 8.929688 -9.875 8.453125 -9.875 C 8.253906 -9.875 8.09375 -9.820312 7.96875 -9.71875 C 7.851562 -9.613281 7.796875 -9.492188 7.796875 -9.359375 C 7.796875 -9.203125 7.960938 -9.050781 8.296875 -8.90625 C 8.640625 -8.769531 9.066406 -8.597656 9.578125 -8.390625 C 10.085938 -8.191406 10.59375 -7.914062 11.09375 -7.5625 C 11.601562 -7.21875 12.023438 -6.769531 12.359375 -6.21875 C 12.703125 -5.675781 12.875 -4.988281 12.875 -4.15625 Z M 12.875 -4.15625 "/></g></g></g><g fill="#ffffff" fill-opacity="1"><g transform="translate(305.499878, 301.815155)"><g><path d="M 2.34375 -8.578125 L 0.515625 -8.578125 L 0.515625 -13.78125 L 2.34375 -13.78125 L 2.34375 -18.203125 L 8.578125 -18.203125 L 8.578125 -13.78125 L 10.921875 -13.78125 L 10.921875 -8.578125 L 8.578125 -8.578125 L 8.578125 -6.375 C 8.578125 -5.851562 8.695312 -5.460938 8.9375 -5.203125 C 9.1875 -4.941406 9.5 -4.8125 9.875 -4.8125 C 10.132812 -4.8125 10.375 -4.832031 10.59375 -4.875 C 10.8125 -4.914062 10.921875 -4.9375 10.921875 -4.9375 L 10.921875 0.265625 C 10.921875 0.265625 10.691406 0.304688 10.234375 0.390625 C 9.785156 0.472656 9.234375 0.515625 8.578125 0.515625 C 6.640625 0.515625 5.113281 -0.0625 4 -1.21875 C 2.894531 -2.382812 2.34375 -4.101562 2.34375 -6.375 Z M 2.34375 -8.578125 "/></g></g></g><g fill="#ffffff" fill-opacity="1"><g transform="translate(317.716217, 301.815155)"><g><path d="M 1.296875 -13.78125 L 7.546875 -13.78125 L 7.546875 0 L 1.296875 0 Z M 1.296875 -15.34375 L 1.296875 -20.28125 L 7.546875 -20.28125 L 7.546875 -15.34375 Z M 1.296875 -15.34375 "/></g></g></g><g fill="#ffffff" fill-opacity="1"><g transform="translate(326.553573, 301.815155)"><g><path d="M 11.1875 -14.171875 C 12.050781 -14.171875 12.835938 -13.929688 13.546875 -13.453125 C 14.253906 -12.972656 14.816406 -12.226562 15.234375 -11.21875 C 15.648438 -10.207031 15.859375 -8.894531 15.859375 -7.28125 L 15.859375 0 L 9.625 0 L 9.625 -7.28125 C 9.625 -7.800781 9.515625 -8.191406 9.296875 -8.453125 C 9.078125 -8.710938 8.835938 -8.84375 8.578125 -8.84375 C 8.316406 -8.84375 8.078125 -8.710938 7.859375 -8.453125 C 7.648438 -8.191406 7.546875 -7.800781 7.546875 -7.28125 L 7.546875 0 L 1.296875 0 L 1.296875 -13.78125 L 7.28125 -13.78125 L 7.796875 -12.21875 C 7.796875 -12.21875 7.859375 -12.316406 7.984375 -12.515625 C 8.117188 -12.710938 8.320312 -12.9375 8.59375 -13.1875 C 8.875 -13.445312 9.226562 -13.675781 9.65625 -13.875 C 10.082031 -14.070312 10.59375 -14.171875 11.1875 -14.171875 Z M 11.1875 -14.171875 "/></g></g></g><g fill="#ffffff" fill-opacity="1"><g transform="translate(343.448507, 301.815155)"><g><path d="M 2.34375 -8.578125 L 0.515625 -8.578125 L 0.515625 -13.78125 L 2.34375 -13.78125 L 2.34375 -18.203125 L 8.578125 -18.203125 L 8.578125 -13.78125 L 10.921875 -13.78125 L 10.921875 -8.578125 L 8.578125 -8.578125 L 8.578125 -6.375 C 8.578125 -5.851562 8.695312 -5.460938 8.9375 -5.203125 C 9.1875 -4.941406 9.5 -4.8125 9.875 -4.8125 C 10.132812 -4.8125 10.375 -4.832031 10.59375 -4.875 C 10.8125 -4.914062 10.921875 -4.9375 10.921875 -4.9375 L 10.921875 0.265625 C 10.921875 0.265625 10.691406 0.304688 10.234375 0.390625 C 9.785156 0.472656 9.234375 0.515625 8.578125 0.515625 C 6.640625 0.515625 5.113281 -0.0625 4 -1.21875 C 2.894531 -2.382812 2.34375 -4.101562 2.34375 -6.375 Z M 2.34375 -8.578125 "/></g></g></g><g fill="#ffffff" fill-opacity="1"><g transform="translate(355.664845, 301.815155)"><g><path d="M 1.296875 -13.78125 L 7.546875 -13.78125 L 7.546875 0 L 1.296875 0 Z M 1.296875 -15.34375 L 1.296875 -20.28125 L 7.546875 -20.28125 L 7.546875 -15.34375 Z M 1.296875 -15.34375 "/></g></g></g></svg>